<svg clip-rule="evenodd" fill-rule="evenodd" viewBox="0 0 560 400" xmlns="http://www.w3.org/2000/svg"><path d="m280.074 350.001c-82.815 0-150.074-67.259-150.074-149.926.048-82.31 67.764-150.026 150.074-150.074 82.667 0 149.926 67.259 149.926 150.074-.095 82.211-67.715 149.831-149.926 149.926z" fill="#e03a3e"/><path d="m280.074 343.186c-78.509 0-143.111-64.603-143.111-143.111 0-78.509 64.603-143.111 143.111-143.111 78.509 0 143.111 64.603 143.111 143.111 0 78.815-64.296 143.111-143.111 143.111z" fill="#fff"/><path d="m280.074 336.223c-74.689 0-136.148-61.459-136.148-136.148s61.459-136.148 136.148-136.148 136.148 61.459 136.148 136.148c-.057 74.667-61.482 136.092-136.148 136.148z" fill="#e03a3e"/><path d="m231.482 84.963 2.519 5.926-7.259-3.852-4.148 1.926 8.444 19.111 4.148-1.778-5.333-12.148 7.407 4 2.667 6.074 4.148-1.778-8.593-19.259zm89.037-3.259-3.111 9.926-5.037-1.63 3.259-9.778-4.296-1.333-3.111 9.778-1.481-.444.593 2.963-2.37 7.704 4.296 1.333 1.926-6.37 5.037 1.63-2.074 6.37 4.296 1.333 6.37-20-4.296-1.481zm69.778 58.667-2.37-3.852c-3.079 1.738-6.364 3.083-9.778 4l-1.778-2.815 8.741-5.481-2.37-3.852-8.741 5.63-.889-1.333-1.333 2.667-6.815 4.444 2.37 3.704 5.63-3.556 2.222 3.259c-1.515 1.746-3.202 3.335-5.037 4.741l2.519 3.704c1.333-1.037 5.481-4.741 6.37-6.963 3.943-.873 7.737-2.321 11.259-4.296zm5.629 12.296c-3.136.086-6.219.844-9.037 2.222l-1.185 10.963-2.667.741-1.926-4.593 1.63-.741-1.63-4.148-5.333 2.074s4.593 11.556 4.741 12.148c3.299-.185 6.526-1.042 9.481-2.519l1.037-10.815c.772-.267 1.564-.465 2.37-.593l1.778 4.593-1.481.741 1.63 4.148 5.185-2.074s-4.296-11.259-4.593-12.148zm-226.222-12 3.407 2.074 2.519-4.148 14.667 8.889 2.222-3.852-14.519-8.889 2.519-4.148-3.407-2.074-7.407 12.148zm77.185-61.334.889 3.852 4.741-1.037 3.852 16.593 4.296-1.037-3.704-16.593 4.741-1.037-.889-4zm-59.556 36.741-2.963 3.259 15.556 14.222 7.259-8-2.963-2.667-4.296 4.593zm-21.333 43.408 1.037-2.963c2.159.165 4.295.563 6.37 1.185l-1.778 4.889c-2.01-.774-3.905-1.821-5.63-3.111zm18.963-2.37-9.63-3.407c-3.572-1.206-7.356-1.659-11.111-1.333 0 .148-2.815 8.148-2.963 8.593 2.573 2.505 5.586 4.515 8.889 5.926l-.593 1.333 2.963-.444 7.556 2.667 1.481-4.148-6.222-2.222 1.778-5.037 6.222 2.37 1.63-4.296zm154.371-62.519 2.667 1.481c-.469 2.114-1.217 4.157-2.222 6.074l-4.593-2.519c1.173-1.842 2.565-3.533 4.148-5.037zm-1.037 18.963 5.037-8.741c1.854-3.274 2.967-6.916 3.259-10.667-.148 0-7.407-4.296-7.852-4.444-2.938 2.072-5.452 4.686-7.407 7.704l-1.333-.889v3.111l-4 6.815 3.852 2.37 3.407-5.778 4.444 2.667-3.259 5.63zm-132.149-9.482 2.37-1.778c1.752 1.286 3.344 2.779 4.741 4.444l-4.148 3.111c-1.22-1.798-2.215-3.738-2.963-5.778zm17.185 8.296-6.222-8c-2.337-2.943-5.264-5.365-8.593-7.111-.148.148-6.815 5.185-7.259 5.481.821 3.495 2.278 6.809 4.296 9.778l-1.185 1.037 2.815 1.037 4.889 6.37 3.556-2.667-4-5.333 4.148-3.111 4 5.333 3.556-2.815zm57.334-26.963h-5.185c.004-2.154.304-4.298.889-6.37h3.111c.622 2.075 1.02 4.211 1.185 6.37zm-5.185 10.667v-6.667h5.185v6.519h4.593l-.148-8 1.481-2.667h-1.481c-.185-3.6-1.091-7.127-2.667-10.37-.444 0-8.889.148-9.037.148-1.604 3.383-2.462 7.072-2.519 10.815l.148 10.222h4.444zm96.444 19.111-6.815 6.963c-1.693 1.804-3.64 3.351-5.778 4.593l-1.333-1.333c.981-2.236 2.333-4.29 4-6.074l6.815-7.111-3.111-3.111-6.815 6.963c-1.838 1.679-3.878 3.122-6.074 4.296l-1.333-1.333c1.138-2.173 2.585-4.169 4.296-5.926l6.815-6.963-3.259-3.111-6.963 7.259c-2.599 2.698-4.572 5.936-5.778 9.481 0 .148 5.185 5.037 5.481 5.333l1.778-.593-.741 1.778c.296.296 5.481 5.185 5.481 5.333 3.564-1.311 6.8-3.384 9.481-6.074l7.111-7.259-3.259-3.111zm-179.704 141.186c-2.959.879-5.69 2.396-8 4.444l1.778 10.963-2.519 1.333-2.963-4 1.333-.889-2.667-3.556-4.444 3.259s7.407 9.926 7.704 10.37c3.704-1.037 5.778-2.815 8.593-4.889l-1.926-10.667c.638-.481 1.336-.879 2.074-1.185l2.963 4-1.333.889 2.667 3.704 4.593-3.407s-7.407-9.778-7.852-10.37zm47.852 40-1.185 3.852 4.593 1.481-5.63 16.148 4.296 1.481 5.481-16.148 4.593 1.63 1.333-3.852-13.482-4.593zm-78.963-73.926 4.444-.889.889 4c-1.481.593-2.963 1.185-4.296 1.63zm12.741-2.667 1.037 4.889c-1.522.198-3.06.247-4.593.148l-.889-4 4.444-1.037zm5.926 8.593c-.148-1.037-2.963-13.778-2.963-13.778l-8.296 1.778-.296-1.63-2.37 2.222-9.63 2.074s2.815 12.593 2.963 13.482c3.483-.628 6.837-1.83 9.926-3.556 3.559.525 7.188.323 10.667-.593zm52.741 68.889 2.074-3.556-12.148-6.815-4.296 7.259-1.481-.741.148 3.259-4.889 8.444 12.148 6.963 1.926-3.556-8.148-4.741 2.222-3.852 5.037 2.963 2.074-3.556-5.185-2.963 2.222-3.852 8.296 4.741zm131.111-12 1.037 1.333-3.704 3.407-8.741-9.778 3.407-2.963c.48.353.927.749 1.333 1.185l3.259-2.963c-1.391-1.385-2.875-2.672-4.444-3.852-.444.444-9.481 8.741-9.481 8.741l14.074 15.556 10.37-9.481-3.852-4.148-3.259 2.963zm-54.963 14.666-4.296 1.185 5.481 20.296 10.519-2.815-1.037-3.852-6.222 1.63-4.444-16.444zm-127.852-57.185 1.333 2.815c-1.585 1.452-3.384 2.651-5.333 3.556l-2.222-4.741c2.002-.785 4.091-1.332 6.222-1.63zm-11.852 14.963 9.333-4.296c3.378-1.604 6.362-3.93 8.741-6.815 0-.148-3.556-7.852-3.704-8.296-3.61-.028-7.189.677-10.519 2.074l-.741-1.481-1.778 2.519-7.259 3.407 1.926 4 6.074-2.667 2.074 4.593-5.926 2.815 1.778 4.148zm92.889 61.926.593-4.593 4 .593c.148 1.481.148 3.111.148 4.593zm1.63-13.037 4.889.741c-.286 1.477-.735 2.917-1.333 4.296l-4.148-.444.593-4.593zm9.926-2.667c-.889-.148-13.778-1.778-13.778-1.778l-1.185 8.444-1.481-.296 1.185 2.963-1.333 9.63s12.889 1.778 13.778 1.926c.519-3.537.519-7.13 0-10.667 1.778-3.111 2.37-5.926 2.815-10.222zm124.444-76.296-4.444-1.037.889-3.852c1.63 0 3.111 0 4.593.148l-1.037 4.741zm-12.741-2.815 1.037-4.741c1.494.363 2.937.91 4.296 1.63l-.889 4.148zm-1.778-10.074c-.296.889-3.111 13.63-3.111 13.63l8.444 1.778-.444 1.63 3.111-1.037 9.481 2.074s2.815-12.593 2.963-13.482c-3.428-.901-6.988-1.202-10.519-.889-2.963-2.074-5.63-2.815-9.926-3.704zm-95.999 93.037 3.111-.296c.819 1.993 1.367 4.085 1.63 6.222l-5.185.444c-.142-2.133.007-4.277.444-6.37zm10.222 16.148-.889-10.222c-.472-3.73-1.735-7.316-3.704-10.519-1.969-3.202-8.593.889-8.889.889-1.251 3.359-1.805 6.938-1.63 10.519l-1.481.148 1.778 2.519.741 8 4.444-.444-.593-6.667 5.185-.444.593 6.519 4.444-.296zm66.222-62.074-2.667 3.556 16.889 12.593 6.519-8.741-3.259-2.37-3.704 5.037-13.778-10.074zm-37.778 31.408-4 1.926 9.185 18.963 9.778-4.741-1.778-3.704-5.778 2.815zm49.63-51.852 8.889 4c2.249.977 4.346 2.274 6.222 3.852l-1.481 3.111c-2.409-.354-4.753-1.053-6.963-2.074l-8.889-4-1.778 4 9.185 4.148c3.453 1.516 7.191 2.274 10.963 2.222 0-.148 3.556-8 3.704-8.444-2.379-2.885-5.363-5.211-8.741-6.815l-9.333-4.148zm-159.408 41.037-3.407-3.111c-2.453 2.543-5.244 4.737-8.296 6.519l-2.37-2.222 6.815-7.704-3.259-2.963-6.963 7.704-1.185-1.037-.593 2.963-5.333 5.926 3.259 2.963 4.593-4.889 2.815 2.519c-1.011 2.044-2.149 4.023-3.407 5.926 1.037 1.037 2.074 1.926 3.259 2.963 1.037-1.481 4.148-6.074 4.296-8.444 3.574-1.905 6.864-4.299 9.778-7.111zm156.741-82.371c-.041 50.97-41.993 92.889-92.963 92.889-50.998 0-92.963-41.966-92.963-92.963 0-50.998 41.966-92.963 92.963-92.963h.074c50.975.099 92.872 42.061 92.889 93.037z" fill="#fff"/><path d="m280.074 268.074c-18.177.058-35.617-7.272-48.296-20.296 34.963-18.074 56.889-13.333 56.889-9.778 0 3.556-5.481 11.852-5.481 11.852 28.593-4 49.333-21.185 49.333-44.445 0-23.111-21.63-34.37-27.111-37.778-5.926-3.704-3.259-8.741-22.667-16-11.852-4.444-28.444-8.889-34.963-10.519 9.904-5.381 20.998-8.201 32.269-8.201 37.075 0 67.583 30.507 67.583 67.582 0 37.064-30.491 67.568-67.556 67.583zm0-154.222c-27.351-.074-53.168 12.862-69.482 34.815 2.222.741 6.667 1.926 12 3.556 8.444 2.519 36.593 10.667 41.926 12.444 15.407 4.889 19.407 6.815 23.852 11.556 5.272 5.369 11.08 10.184 17.333 14.37 6.37 4.593 9.481 9.481 9.481 17.333 0 7.704-5.926 14.222-9.63 16.593 0 0 1.333-3.852-.444-5.481-1.778-1.63-7.556-4.741-22.074-3.704-14.519 1.037-33.926 8.148-47.111 15.111 0 0 6.37-9.926 15.704-14.37 0 0-7.704 0-51.111 18.963 13.719 31.63 45.056 52.195 79.532 52.195 47.557 0 86.69-39.133 86.69-86.69 0-47.548-39.119-86.677-86.667-86.69zm-.74 64.148c-3.478.152-6.94-.562-10.074-2.074-5.037-2.667-12.741-8.296-19.556-2.074 0 0 5.63-.741 5.185.741-.444 1.63-1.037 10.222 6.815 13.482 7.704 3.407 16.741.889 17.63-10.074z" fill="#e03a3e"/></svg>