<svg clip-rule="evenodd" fill-rule="evenodd" viewBox="0 0 560 400" xmlns="http://www.w3.org/2000/svg"><path d="m188.738 144.963s27.485-44.963 83.789-44.963 82.588 43.762 82.588 43.762h76.317l-3.069 18.679s-2.135 7.472-5.604 8.272h5.203s1.734 6.671-8.672 29.353h22.281s.801 39.76-47.231 58.439c0 0-24.816 7.872-37.492-5.604 0 0-25.35 47.098-84.323 47.098s-85.524-48.432-85.524-48.432h-68.579l10.941-19.613h-7.472l8.806-16.144h14.81l2.535-6.137h-6.938l17.078-31.488h9.606l3.869-9.606h-8.272l12.675-23.616h12.675z" fill="#fff"/><path d="m273.328 289.459c48.165 0 87.258-39.626 87.258-88.592 0-48.832-39.093-88.459-87.258-88.459s-87.258 39.626-87.258 88.459c0 48.966 39.093 88.592 87.258 88.592z" fill="#fdb927"/><path d="m282.934 200.467h-3.736c-.285.019-.515.249-.534.534 0 .267.267.4.534.4h3.869c1.334 0 2.535.133 2.135.667l-10.007 19.213c-.332.875-1.175 1.458-2.111 1.458-.987 0-1.866-.648-2.158-1.591l-4.937-25.617 17.345-13.476c1.734-1.601 5.07-4.003 6.805-4.003h3.869c2.268 0 3.069 1.067 2.535 2.535l-.667 1.201c-.4.801-1.868.934-2.935.934h-2.268l-.05-.003c-.195 0-.354.159-.354.354l.003.05c0 .267.133.534.4.534h2.268c.934 0 2.001 0 1.601.667l-8.005 15.477c-.4.534-2.135.667-3.602.667zm30.153 9.473c-8.139 10.007-12.675 13.342-20.947 13.342-2.802 0-4.27-.667-3.602-2.001l9.873-19.746h3.736c4.136 0 3.602 3.469 2.535 8.272-.267.667.267.667.801.133l9.34-16.411c.4-1.067-.801-1.201-1.334-.4-4.67 6.271-9.606 5.871-11.741 5.871h-1.601l10.407-20.013h4.27c5.337.267 7.738 4.803 6.271 15.744h2.135l7.738-15.21c.667-1.334-.667-2.535-2.135-2.535l-52.301.133c-3.069 0-3.202 2.268-.267 2.268 2.402 0 2.268 3.336.133 4.937l-22.281 17.745 4.536 20.814c.231 1.458 1.608 2.474 3.069 2.268h43.229c1.251.118 2.475-.443 3.202-1.468l7.738-13.476c1.067-2.001-1.334-1.868-2.802-.267zm-95.663-5.604h-13.742l17.345-22.949-3.602 22.949zm-3.202 14.276c-.4 2.268-2.802 3.869-5.737 4.67l-3.069.801 2.535-4.536c.667-1.334-.801-2.001-2.402-.133-10.674 12.408-14.143 18.412-30.687 18.412h-4.403c-1.334 0-2.802-.534-1.868-1.734l5.871-10.941h22.148c2.935 0 2.268-2.268.4-2.268-1.359-.22-2.566-.994-3.336-2.135-.563-1.005-.511-2.247.133-3.202l8.406-11.341h14.143l-2.135 12.408zm32.822 4.27c-.954-.091-1.78-.71-2.135-1.601-.433-1.308-.385-2.727.133-4.003l20.147-35.757c.267-.667 1.201-2.135 2.135-2.135 1.734 0 2.535-2.268-.4-2.268h-16.277c-2.935 0-2.935 2.268-.133 2.268l.093-.003c.738 0 1.346.608 1.346 1.348 0 .18-.036.358-.106.524l-4.403 8.139c-.667.801-1.868.934-3.202.934h-3.736c-.267 0-.534.133-.534.4.019.285.249.515.534.534h3.736c1.067 0 1.868.267 1.334 1.468l-14.943 27.218c-1.067 1.468-3.202 1.734-3.069-1.067l5.203-39.76c.267-1.201 0-2.135-1.334-2.135h-8.005c-.835.007-1.602.468-2.001 1.201l-2.935 3.469c-.267.4-1.201.4-2.001.4h-6.671c-.285.019-.515.249-.534.534 0 .267.267.4.534.4h5.47c.934 0 2.001.267 1.601.801l-7.605 9.606c-.44.272-.951.411-1.468.4h-2.135c-.267 0-.534.133-.534.4.019.285.249.515.534.534h1.734c.534 0 .534.267.4.534l-7.205 9.073c-.579.287-1.222.425-1.868.4h-6.404c-.267 0-.4.267-.4.534l-.003.05c0 .195.159.354.354.354l.05-.003h5.47c.934 0 1.468.133 1.067.801l-10.273 12.809c-1.868 2.535-11.207 3.736-13.075 3.736l34.823-64.977c.567-1.107 1.692-1.823 2.935-1.868h7.338c3.469 0 3.469-2.402.4-2.402h-37.091c-3.069 0-3.202 2.402.4 2.402h6.805c2.001 0 2.535 1.067 2.001 2.135l-.934 1.734c-.267.534-.801.801-2.668.801h-12.141c-.267 0-.4.267-.4.534l-.003.05c0 .195.159.354.354.354l.05-.003h12.141c.667 0 1.601.267 1.067 1.468l-1.734 3.069c-.267.534-1.067.667-1.868.667h-5.604c-.267 0-.4.267-.4.534s.133.534.4.534h5.47c.801 0 .934.534.4 1.201l-3.869 7.205c-.4.667-.934.801-2.268.801h-2.135c-.267 0-.534.133-.534.4.019.285.249.515.534.534h2.135c.801 0 1.067.4.667 1.201l-3.202 6.004c-.534.801-1.201 1.201-3.336 1.201h-12.141l-.05-.003c-.195 0-.354.159-.354.354l.003.05c0 .267.133.534.4.534h12.141c1.334 0 1.868.667 1.334 1.601l-6.271 11.741c-.4.534-1.334.667-3.069.667h-12.141c-.267 0-.534.133-.534.4.019.285.249.515.534.534h12.008c1.468 0 2.402 0 2.001.801l-3.602 6.805c-.667 1.067-2.535 1.067-3.336 1.067h-3.869l-.05-.003c-.195 0-.354.159-.354.354l.003.05c0 .267.133.534.4.534h3.869c1.334 0 2.001.267 1.734.934l-4.803 9.073c-.534.801-2.402.801-3.869.801h-18.679c-.285.019-.515.249-.534.534 0 .267.267.4.534.4h18.679c1.334 0 2.802.267 2.268 1.201l-3.069 5.737c-.267.534-1.334.534-2.935.534h-3.736c-.285.019-.515.249-.534.534 0 .267.267.4.534.4h3.736c.934 0 2.135.133 1.734.934l-2.001 3.602c-.453 1.065-1.511 1.754-2.668 1.734h-9.473c-3.469 0-3.336 2.402-.267 2.402h55.237c1.601 0 1.734-.267 2.402-1.468l8.272-14.276h41.895c2.935 0 2.268-2.268.4-2.268zm107.004-26.284c-1.468 1.334-3.869 2.668-4.403 2.268-1.147-.982-2.4-1.831-3.736-2.535l9.073-16.544c.382-.569 1.053-.879 1.734-.801 3.602 0 4.67 3.736 3.069 8.539-1.201 3.336-3.069 6.938-5.737 9.073zm72.848 14.81c-.267-1.067-.667-.4-1.334.934-.267.534-.934.534-1.734.534h-2.135c-.242.012-.455.171-.534.4l-.002.048c0 .268.22.488.489.488l.047-.002h2.135c.801 0 .801.534.4 1.334-1.338 2.948-3.09 5.688-5.203 8.139-.459.456-1.089.698-1.734.667l-2.268.133c-.267 0-.534.133-.534.4.019.285.249.515.534.534h2.135c1.201 0 0 .667-.133.934-2.667 3.647-5.808 6.921-9.34 9.74-1.011.196-2.045.24-3.069.133h-2.268c-.267 0-.4.267-.4.534l-.003.05c0 .195.159.354.354.354l.05-.003 2.268.133c1.601 0 .4.934.133 1.067-6.004 5.07-15.077 6.671-19.079 6.137-13.342-1.601-16.144-11.741-17.078-15.877-.453-1.17-.811-2.375-1.067-3.602-.4-2.135 5.604-2.668 7.205-1.601 2.535 1.734 8.406 3.469 13.075 3.469 4.27 0 12.942-3.069 15.477-10.407 2.668-7.605-3.869-15.877-6.805-18.813-3.602-3.602-7.071-9.473-5.604-13.742 1.067-3.202 2.935-4.67 6.805-4.67 5.203 0 8.806 3.202 8.806 7.872 0 .4-.133.934-.534.934h-1.734c-.285.019-.515.249-.534.534 0 .267.267.4.534.4h1.601l.046-.001c.369 0 .674.304.674.674 0 .09-.018.179-.052.261-.267 1.601-.4 2.668-.801 4.27-.133.934 1.201 1.468 1.601.801l8.005-14.276c.667-1.067-.667-1.334-1.601-1.067-2.268.801-5.737 1.334-7.071.4-2.792-2.26-6.281-3.486-9.873-3.469-7.071 0-12.141 1.734-15.344 7.605-.267.4-.934.4-1.468.4h-1.468c-.267 0-.4.267-.4.534s.133.534.4.534l1.201-.133c.534 0 .801.267.534.801l-.534 1.601c-.759 3.105-.526 6.373.667 9.34.133.133-.133.267-.667.267h-2.135c-.285.019-.515.249-.534.534 0 .267.267.4.534.4h2.135c1.067 0 1.201.133 1.601.667 1.201 1.601 2.402 2.802 3.736 4.67.534.534-1.468.667-2.535.667h-8.539c-.292 0-.534.241-.534.534 0 .292.241.534.534.534h8.672c1.468 0 3.869-.133 4.136.267 2.135 2.402 4.67 6.137 5.07 9.34.133.934-.267 1.334-1.334 1.334h-1.201l-.05-.003c-.195 0-.354.159-.354.354l.003.05c0 .267.133.534.4.534h1.067c.934 0 1.334.133 1.201.801-1.201 3.602-2.802 6.271-9.74 6.137-7.338 0-8.806-7.071-6.671-14.543.4-1.468 0-2.135-.667-.934l-5.07 8.005c-.349.358-.834.553-1.334.534h-.667c-.292 0-.534.241-.534.534 0 .292.241.534.534.534.534 0 .801.267.534.667l-1.868 2.802c-2.871-6.622-6.498-12.89-10.807-18.679v-.133c6.805-.4 16.678-6.671 18.279-12.275 2.802-9.873-6.671-13.476-11.875-13.476h-22.682c-3.069 0-3.202 2.402-.4 2.402 1.601 0 2.935 1.334 2.268 2.668l-5.07 9.073c-.4.801-1.868.801-4.003.801h-2.135c-.267 0-.534.133-.534.4.019.285.249.515.534.534h2.135c1.468 0 3.069 0 2.535 1.067l-6.004 10.807c-.267.534-1.067.534-3.069.534h-2.135c-.285.019-.515.249-.534.534 0 .267.267.4.534.4h2.135c1.601 0 2.135.267 1.734 1.067l-8.005 14.41c-.934 1.067-2.001 1.201-4.003 1.201-2.935 0-2.802 2.268.133 2.268h19.48c3.069 0 2.268-2.268.534-2.268-1.067 0-2.135-2.001-1.468-3.069l9.873-18.946h1.067c4.403 0 5.47 7.338 6.271 15.21.133.534-.934.667-3.202.667h-5.47c-.267 0-.534.133-.534.4.019.285.249.515.534.534h5.47c1.468 0 3.469 0 3.469.534.256 3.093.702 6.167 1.334 9.206.267.934-1.334.801-2.935.801h-7.071c-.285.019-.515.249-.534.534 0 .267.267.4.534.4h7.071c2.135 0 3.336 0 3.469.534 2.935 11.074 16.011 19.88 28.552 19.346 10.941-.4 20.013-6.271 24.683-10.14 6.271-4.937 15.477-15.477 19.213-23.082.667-1.334 1.734-3.202 1.468-4.403zm-182.521-48.967c-1.711 2.027-4.292 3.119-6.938 2.935h-.801l4.803-9.473c.255-.499.774-.811 1.334-.801.667 0 .534-1.201-.267-1.201h-7.472c-.667 0-.934 1.201-.267 1.201s.667.667.4 1.334l-4.27 8.406c-.35.376-.824.613-1.334.667-.667.267-1.067 1.334-.267 1.334h12.008c.934 0 1.201-.267 1.334-.667l2.535-3.736c.267-.4-.4-.534-.801 0zm36.291-8.272c-.48.334-1.121.334-1.601 0-1.132-.814-2.477-1.278-3.869-1.334-2.802 0-4.803.534-6.137 3.202-.934 2.268.133 4.27 2.535 5.337 1.201.534 2.535 1.201 2.001 2.535-.4.934-1.468 1.067-2.535 1.067-1.334-.133-3.336-1.067-3.602-2.935-.133-.667-.801-.534-1.067-.133l-1.734 3.336c-.267.534.4.934.801.667.623-.647 1.603-.811 2.402-.4 1.304.906 2.822 1.458 4.403 1.601 2.526.216 4.964-1.03 6.271-3.202 1.468-2.268.534-4.536-2.001-5.737-1.468-.667-2.668-1.868-2.001-3.069.4-.801 1.601-.667 2.268-.534 1.273.196 2.346 1.064 2.802 2.268.064.22.268.374.497.374.177 0 .342-.091.437-.24l.801-2.135c.267-.4-.4-.801-.667-.667zm83.656 3.469 1.067-2.001c.534-.801-.267-1.734-1.468-1.734h-14.143c-.934 0-.667 1.067-.267 1.067.934 0 1.201 1.067.667 2.001l-4.27 7.738c-.667.801-1.067 1.067-1.868 1.067s-1.067 1.067 0 1.067h14.276c.534 0 .801-.133.934-.534l2.001-2.535c.534-.534-.534-.534-.801-.267-1.913 1.758-4.483 2.631-7.071 2.402h-1.601l1.868-4.403h.4c1.334 0 2.802 0 3.069.934.131.159.327.252.534.252s.402-.093.534-.252l1.601-3.336c.267-.534-.4-.534-.667-.267-.667 1.201-3.602.934-4.27.934h-.4l2.402-4.803h2.668c1.612-.002 3.06 1.016 3.602 2.535.133.267 1.067.534 1.201.133zm-69.513 2.402 4.67-3.736v3.736zm33.489-6.137h-4.937c-1.067 0-.801 1.067-.267 1.067.859.018 1.557.729 1.557 1.59 0 .286-.077.566-.222.812l-2.001 3.736-4.536-6.671c-.473-.434-1.093-.673-1.734-.667h-4.937c-.934 0-.801 1.067-.267 1.067.934 0 .667.801.4 1.334l-3.869 7.605c-.145.296-.446.484-.775.484-.38 0-.718-.252-.826-.617l-3.069-9.873c-.133-.4-1.868-.4-2.402 0l-7.605 6.271h-3.869c-.801 0-1.201.4-1.201.801 0 .4.4.801 1.201.801h2.001l-2.001 1.734c-1.201.801-2.402 2.001-3.069 2.001h-.534c-.801 0-1.201.133-1.201.667 0 .667.4.801 1.067.801h6.137c1.201 0 .934-1.468.4-1.468h-.017c-.634 0-1.154-.52-1.154-1.154 0-.321.135-.629.37-.847l1.868-1.734h3.736c2.135 0 3.736 2.535 2.402 3.336l-1.067.534c-.4.267-.667 1.334 0 1.334h12.008c.934 0 .801-1.201.4-1.201-1.334 0-.667-1.734-.4-2.135l3.069-6.004 4.403 8.539c.4.534.667.801 1.067.801h1.734c.43.036.827-.248.934-.667l5.07-9.206c.801-1.601 1.468-2.001 2.535-2.001.4 0 .667-1.067-.4-1.067zm-69.913 7.471c-1.334 2.668-3.602 4.27-4.937 3.602-1.468-.667-1.601-3.469-.133-6.137 1.334-2.668 3.469-4.27 4.937-3.602 1.468.801 1.468 3.469.133 6.137zm-1.201-8.139c-4.136 0-8.539 2.135-9.34 6.538-.102.46-.153.931-.153 1.403 0 3.55 2.922 6.472 6.472 6.472l.219-.003c4.536 0 8.672-2.935 9.473-7.205s-2.268-7.205-6.671-7.205zm85.39 6.538h-5.337c-1.067 0-.801 1.067-.4 1.067l.097-.006c.463 0 .843.38.843.843l-.006.097c0 2.135-.934 2.935-2.935 2.935s-2.802-2.402-1.334-5.47c1.077-2.343 3.426-3.856 6.004-3.869 1.734 0 3.202.4 3.336 2.001.133.4.667.4.934 0l1.201-2.268c.133-.267 0-.534-.4-.534-.4-.133-1.067.4-1.601 0-1.562-.985-3.358-1.538-5.203-1.601-4.034-.254-7.857 1.895-9.74 5.47-2.535 4.27 1.067 8.806 4.403 8.806 1.868 0 4.136-1.334 5.337-1.868l1.334.934c.277.305.657.496 1.067.534h.534c.534 0 .667-.667.801-1.067l2.135-5.07c.267-.534.133-.934-1.067-.934zm74.316-5.604c-.48.334-1.121.334-1.601 0-1.132-.814-2.477-1.278-3.869-1.334-2.802 0-4.803.534-6.137 3.202-.934 2.268.133 4.27 2.668 5.337 1.067.534 2.402 1.201 1.868 2.535-.4.934-1.468 1.067-2.535 1.067-1.334-.133-3.336-1.067-3.602-2.935-.133-.667-.801-.534-1.067-.133l-1.734 3.336c-.267.534.4.934.801.667.623-.647 1.603-.811 2.402-.4 1.304.906 2.822 1.458 4.403 1.601 2.802 0 4.803-.801 6.271-3.202 1.468-2.268.667-4.536-2.001-5.737-1.468-.667-2.535-1.868-2.001-3.069.4-.801 1.601-.667 2.268-.534 1.273.196 2.346 1.064 2.802 2.268.064.22.268.374.497.374.177 0 .342-.091.437-.24l.801-2.135c.267-.4-.4-.801-.667-.667zm-37.625 8.272c-1.868 2.268-4.27 2.935-7.071 2.935h-.667l4.803-9.473c.198-.547.758-.883 1.334-.801.534 0 .534-1.201-.267-1.201h-7.605c-.667 0-.801 1.201-.267 1.201.667 0 .801.667.534 1.334l-4.403 8.406c-.296.372-.728.613-1.201.667-.667.267-1.067 1.334-.4 1.334h12.008c.934 0 1.201-.267 1.468-.667l2.402-3.736c.4-.4-.4-.534-.667 0zm18.145-7.471c1.588.076 2.995 1.066 3.602 2.535.133.267.934.534 1.201.133l1.067-2.001c.4-.801-.267-1.734-1.468-1.734h-14.143c-1.067 0-.667 1.067-.267 1.067.934 0 1.201 1.067.534 2.001l-4.136 7.738c-.419.696-1.19 1.106-2.001 1.067-.667 0-.934 1.067 0 1.067h14.276c.667 0 .934-.133 1.067-.534l2.001-2.535c.4-.534-.534-.534-.934-.267-1.853 1.768-4.387 2.645-6.938 2.402h-1.734l2.001-4.403h.4c1.201 0 2.668 0 3.069.934.103.157.279.252.467.252s.364-.096.467-.252l1.734-3.336c.267-.534-.534-.534-.667-.267-.667 1.201-3.602.934-4.403.934h-.4l2.535-4.803h2.668z" fill="#552583"/><path d="m288.538 121.348c-6.671-.4-12.141-.667-16.811-.133 1.312-3.232 3.48-6.046 6.271-8.139 4.304.212 8.586.747 12.809 1.601 11.875 2.268 30.287 9.606 38.292 20.147-10.674-7.071-28.152-12.542-40.56-13.476zm-19.88.267c-4.678.531-9.313 1.378-13.876 2.535l-3.069-8.806c7.332-2.039 14.958-2.806 22.548-2.268-1.868 1.468-4.937 6.938-5.604 8.539zm-33.489 9.873c-.801-1.334-4.67-4.937-6.805-5.604 4.937-3.736 16.277-8.939 20.68-9.873.667 1.334 2.668 6.671 3.336 8.806-3.869.801-14.009 4.536-17.211 6.671zm106.738 12.141c-1.067-1.334-2.535-4.003-13.209-13.342-15.877-13.742-36.824-20.013-56.438-20.013-14.41 0-27.085 3.202-41.227 10.941-17.879 9.873-25.217 21.214-27.085 23.482-1.334 1.734-1.468 2.668-.667 3.202.667.4 1.868-.934 2.935-2.402 5.337-7.071 12.408-14.009 19.746-18.145 2.268.4 5.47 3.602 6.671 5.203-5.347 3.327-10.513 6.933-15.477 10.807-2.535 2.001-3.336 3.069-2.668 3.869.534.667 2.535-.534 4.136-1.868 4.863-3.866 9.99-7.388 15.344-10.54 2.935 3.336 2.001 9.473.934 10.674-.534.801-.534 1.468 0 1.868.667.4 1.201-.534 2.001-1.734 2.001-2.802 1.201-9.473-.4-11.875 5.07-3.202 12.275-5.337 16.678-6.271.4.667 5.737 16.277 6.805 19.079.534 1.601 1.067 3.469 2.268 3.069.667-.133.267-1.868-.4-3.602-.801-2.135-4.803-15.21-6.137-19.079 1.468-.801 10.273-2.535 12.542-2.535-1.067 5.737 2.935 8.139 7.472 11.074 2.402 1.601 17.879 10.407 21.081 12.408 1.868 1.201 3.336 1.868 3.736 1.334s-.801-1.868-2.535-2.802c-1.334-.801-15.744-9.206-21.748-12.942-4.27-2.802-6.538-5.604-5.604-9.473 1.468-.4 5.737-.4 10.273-.4 30.687.267 55.237 17.745 57.905 20.68 1.468 1.334 3.336 2.535 4.136 2.001.4-.4-.4-2.001-1.067-2.668zm6.671 104.736c1.201-2.001 2.001-3.202 1.067-3.736-.801-.534-1.734 1.468-2.802 3.336-3.602 6.137-7.472 11.341-16.277 19.346-7.326 6.573-15.778 11.771-24.95 15.344-3.336-9.34-16.011-49.099-16.411-50.3-.4-1.734-.934-2.135-1.468-2.001-.667.267-.267 1.201.133 2.668.267 1.468 15.344 48.699 15.877 50.3-2.935 1.468-15.21 4.937-23.616 5.203-7.605.267-16.544 0-21.081-1.067-5.203-4.27-17.211-21.214-21.748-30.153-5.337-10.674-8.939-20.414-9.873-24.55-.4-2.001-.934-3.469-2.001-3.202-1.067.133-.4 1.734.267 3.869 2.454 8.39 5.716 16.522 9.74 24.283 6.004 11.608 16.544 25.35 19.613 29.086-11.78-2.568-22.879-7.617-32.555-14.81-9.606-7.205-17.879-16.277-22.015-22.949-.667-1.201-1.468-2.802-2.535-2.135-.534.4.133 1.601.801 2.935 6.004 10.807 20.68 26.151 39.626 34.556 21.881 9.74 45.764 9.206 67.245.934 18.679-7.205 34.957-22.148 42.962-36.958z"/></svg>