<svg clip-rule="evenodd" fill-rule="evenodd" viewBox="0 0 560 400" xmlns="http://www.w3.org/2000/svg"><path d="m280.148 335c-60.066 0-108.926-48.86-108.926-108.926 0-29.361 11.58-56.929 32.573-77.623l.523-.448c-7.247-10.908-11.281-23.683-8.218-39.148 5.677-28.464 28.688-37.056 29.659-37.429.374-.15.747-.224 1.121-.224 1.195 0 2.391.672 2.988 1.792.373.673.448 1.494.299 2.242 7.546-6.35 14.718-9.115 17.707-10.085.373-.075.672-.15 1.046-.15 1.269 0 2.54.747 3.063 1.942.673 1.569.15 3.362-1.345 4.259-6.873 4.109-12.85 9.787-17.333 16.211 5.454-1.269 9.04-1.419 10.31-1.419h.673c1.643.074 2.988 1.419 3.138 3.063.149 1.643-.897 3.138-2.54 3.586-.074 0-9.114 2.316-19.051 9.414-1.868 5.753-2.839 11.73-2.839 17.781 0 11.505 3.661 23.384 10.085 32.424 1.494 2.092 2.914 3.96 4.483 5.603-.597-11.879 2.914-30.257 24.281-38.774.373-.15.822-.224 1.27-.224 1.269 0 2.391.673 2.988 1.868.822 1.569.224 3.437-1.27 4.408l-.15.074c-3.212 2.092-5.976 4.781-8.068 7.919 2.241-.672 4.184-.896 5.454-1.046h.597c1.419 0 2.689.897 3.138 2.242.523 1.494-.075 3.138-1.345 3.96l-.224.149c-6.799 3.96-10.609 8.517-11.281 13.597-.747 5.528 2.316 10.758 4.483 13.746 5.753-6.649 9.414-17.93 10.459-22.188.373-1.494 1.718-2.54 3.287-2.54h.374c1.718.224 2.988 1.644 2.988 3.288.074 13.971-3.661 23.533-7.471 29.585 5.752 2.839 11.28 3.063 12.551 3.063h.747c1.196 0 6.799-.15 12.551-3.063-3.811-6.126-7.546-15.688-7.471-29.585 0-1.719 1.27-3.138 2.989-3.288h.373c1.494 0 2.914 1.046 3.288 2.54 1.046 4.258 4.781 15.539 10.459 22.188 2.241-2.988 5.229-8.218 4.483-13.746-.673-5.08-4.483-9.712-11.281-13.597-.075 0-.224-.149-.224-.149-1.345-.822-1.943-2.54-1.42-3.96.448-1.345 1.719-2.242 3.138-2.242h.598c1.345.15 3.212.374 5.453 1.046-2.092-3.138-4.856-5.827-8.068-7.919l-.15-.074c-1.494-.897-2.017-2.839-1.27-4.408.598-1.195 1.793-1.868 2.989-1.868.448 0 .822.074 1.27.224 21.292 8.517 24.803 26.895 24.28 38.774 1.569-1.643 2.988-3.511 4.483-5.603 6.425-9.115 10.085-20.919 10.085-32.424 0-6.051-.971-12.028-2.839-17.781-10.011-7.172-18.901-9.414-19.051-9.414-1.643-.373-2.689-1.942-2.54-3.586.15-1.644 1.494-2.989 3.138-3.063h.673c1.27 0 4.931.15 10.31 1.419-4.557-6.499-10.534-12.103-17.333-16.211-1.494-.897-2.017-2.69-1.345-4.259.523-1.195 1.793-1.942 3.063-1.942.373 0 .672.074 1.046.15 2.988.971 10.16 3.735 17.706 10.085-.15-.747-.074-1.494.373-2.242.598-1.12 1.719-1.792 2.989-1.792.373 0 .747.074 1.12.224.971.373 23.982 8.965 29.66 37.429 3.063 15.465-.971 28.24-8.218 39.148.223.149.373.299.523.448 20.993 20.694 32.573 48.262 32.573 77.623.299 60.066-48.561 108.926-108.628 108.926z" fill="#eee1c6"/><path d="m248.92 68.437c-7.546 2.391-22.861 10.235-31.827 29.585-3.586 2.466-6.649 5.604-10.011 9.712 3.437-15.765 11.73-27.045 19.799-33.021 0 0-22.115 7.993-27.494 34.888-6.276 31.303 18.753 50.879 38.999 67.689l-15.39-6.276c-1.046-.448-1.794.597-1.57 1.793l.45 3.81c.223 2.092 1.792 12.7 7.62 15.912 1.195.673 3.361 1.496 9.787 1.944l11.58.747-1.942 6.5 11.356 18.154-5.827-6.126-11.879 42.21 32.573 26.821-10.16-46.095 15.165 18.453 15.017-18.453-10.16 46.095 32.573-26.821-11.879-42.21-5.828 6.126 11.356-18.154-1.942-6.499 11.58-.747c6.35-.448 8.517-1.271 9.787-1.944 5.827-3.212 7.395-13.82 7.62-15.912l.448-3.811c.224-1.195-.522-2.241-1.568-1.793l-15.391 6.276c20.246-16.81 45.273-36.385 38.997-67.688-5.379-26.895-27.493-34.888-27.493-34.888 8.143 5.977 16.361 17.182 19.798 33.021-3.287-4.109-6.35-7.247-10.011-9.712-9.04-19.35-24.28-27.194-31.826-29.585 9.787 5.902 17.93 14.643 22.861 24.728-11.281-4.034-18.079-3.659-18.079-3.659s10.085 2.464 21.067 10.608c2.167 6.276 3.362 12.925 3.362 19.873 0 12.177-3.96 24.729-10.758 34.367-3.81 5.379-7.545 9.115-12.102 12.551 1.494-3.81 7.322-33.321-20.619-44.527l.224.148c6.649 4.259 11.505 10.908 13.448 18.753-5.081-4.931-10.459-5.379-13.298-5.752l.149.074c25.924 14.941 5.304 35.188 5.304 35.188-8.143-6.873-12.925-22.188-13.97-26.371-.075 16.212 5.304 25.924 8.965 30.631-8.368 5.752-17.707 5.378-17.707 5.378s-9.338.374-17.705-5.378c3.661-4.707 9.04-14.419 8.965-30.631-1.046 4.184-5.826 19.498-13.97 26.371 0 0-20.62-20.246 5.304-35.188l.148-.074c-2.838.373-8.217.895-13.297 5.752 2.017-7.845 6.873-14.494 13.448-18.753l.223-.148c-27.942 11.206-22.114 40.716-20.62 44.526-4.557-3.437-8.292-7.173-12.102-12.552-6.799-9.563-10.758-22.114-10.758-34.366 0-6.948 1.196-13.672 3.362-19.873 10.982-8.143 21.067-10.608 21.067-10.608s-6.798-.375-18.079 3.659c5.006-10.085 13.148-18.826 22.86-24.727l.002-.001zm-42.809 82.404c-19.425 19.2-31.527 45.796-31.527 75.232 0 58.199 47.366 105.565 105.564 105.565 58.199 0 105.565-47.366 105.565-105.565 0-29.436-12.028-56.031-31.527-75.232l-2.316 2.838c18.678 18.453 30.181 44.079 30.181 72.393 0 56.256-45.647 101.904-101.903 101.904-56.255 0-101.904-45.648-101.904-101.904 0-28.314 11.58-53.94 30.183-72.393l-2.317-2.838zm5.081 5.38c-18.005 17.856-29.211 42.584-29.211 69.853 0 54.09 44.004 98.169 98.168 98.169 54.09 0 98.169-44.004 98.169-98.169 0-27.268-11.132-51.922-29.137-69.703l-2.539 2.689c17.108 17.108 27.94 40.94 27.94 67.014 0 6.051-.597 11.953-1.643 17.631l-29.211-8.068c-4.632 31.229-31.528 55.286-64.027 55.286-32.349 0-59.244-23.833-63.951-54.912l-28.464 7.695c-1.046-5.753-1.643-11.58-1.643-17.631 0-25.999 10.982-50.205 28.091-67.313l-2.541-2.54h.001z" fill="#00471b"/><path d="m213.657 108.63c-.971 1.046-1.943 2.091-2.839 3.212-8.666 11.281 4.109 31.455 4.109 31.455s-4.78-21.815-1.269-34.665v-.001zm132.909 0c3.661 12.85-1.195 34.665-1.195 34.665s12.775-20.173 4.034-31.455c-.896-1.12-1.868-2.24-2.839-3.212v.001z" fill="#eee1c6"/><path d="m226.881 176.467s1.121 9.49 5.081 11.656c2.689 1.494 9.189 1.344 14.942 1.792-6.351-2.466-15.69-9.189-20.023-13.448zm106.536 0c-4.408 4.258-13.671 10.982-20.021 13.448 5.677-.448 12.252-.297 14.942-1.792 3.96-2.166 5.079-11.656 5.079-11.656zm-34.351 14.251c-.156-.009-.314.019-.464.094-3.138 1.419-6.2 2.838-7.844 3.585-.673.299-.822 1.196-.3 1.644 1.569 1.569 4.483 3.063 7.994.374 1.868-1.419 1.868-3.511 1.643-4.857-.113-.448-.561-.812-1.03-.84zm-37.833.064c-.466.011-.901.346-.957.85-.224 1.345-.223 3.437 1.644 4.857 3.437 2.689 6.425 1.195 7.993-.374.448-.523.3-1.344-.373-1.643-1.643-.747-4.781-2.167-7.845-3.587-.149-.074-.307-.107-.462-.103zm15.404 7.275-3.063 10.004s-1.045 3.96-5.378 6.723l-1.868 8.219 4.557 6.201h4.856l-4.483-6.65.747-4.109c2.017 2.166 4.931 3.585 8.143 3.585s6.125-1.344 8.142-3.585l.747 4.109-4.483 6.65h4.856l4.559-6.201-1.868-8.219c-4.334-2.764-5.38-6.723-5.38-6.723l-3.063-10.011-3.511 1.719-3.513-1.719.002.007zm-3.063 34.957 3.138 4.258h6.874l3.137-4.258zm75.009 8.74-2.615 8.592-.747 2.391 9.787 2.913 2.466.746 2.316-7.62 6.051 1.794-1.269 4.258-2.615-.822-1.046 3.362 3.661 1.12 2.464.747 3.288-11.058-2.466-.522-8.142-2.466-2.466-.747-2.315 7.621-5.23-1.569 1.269-4.259 2.615.747 1.046-3.362-3.586-1.12-2.465-.747zm-136.868.524-21.665 7.471 1.12 3.361 13.672-4.707-4.857 4.035 6.276.223-13.598 4.708 1.12 3.361 21.666-7.471-1.195-3.362-6.276-.224 4.857-4.033-1.121-3.362.001-.001zm132.386 11.804-1.793 3.288 4.183 5.677-5.603-2.989-1.643 3.139 20.246 10.758 1.643-3.138-8.816-4.706 10.609 1.345 1.719-3.288-14.569-1.942-5.976-8.143-.001-.001zm-127.156 2.166-20.32 10.609 1.643 3.138 20.322-10.609-1.644-3.138zm3.213 6.276-18.603 13.372 6.425 8.966 2.989-2.167-4.333-6.127 15.615-11.13zm117.967 2.689-7.172 8.965 2.017 1.643 15.764 12.626 1.568-1.942 5.604-7.023-2.017-1.569-3.362-2.839-2.167 2.765 2.615 2.091-2.763 3.513-12.104-9.638 2.765-3.511 2.54 2.017 2.166-2.763-3.437-2.691-2.017-1.643.001.001zm-111.915 5.753-14.643 17.706 2.391 2.39 6.276-4.332-4.258 6.35 2.391 2.391 17.482-14.867-2.166-2.316-7.397 6.051 5.306-8.143-.823-.822-8.067 5.38 5.902-7.471-2.391-2.317h.001zm102.8 5.305-2.764 2.242 12.476 14.568-3.437 2.838-12.327-14.643-2.689 2.316 14.569 17.556 2.017-1.717 5.006-4.185 1.868-1.569zm-91.37 5.604-.074.074-12.253 19.2 2.988 1.868 5.379-8.441 3.735 2.39-5.379 8.443 2.989 1.868 10.384-16.213 1.196-1.868.672-1.046.074-.074-9.712-6.2zm77.997 4.557-7.921 4.258 10.833 20.023 7.921-4.259.971-3.362-3.362-6.2-2.017-.898.374-2.241-3.513-6.425-3.286-.895zm-77.025.448 3.735 2.391-2.988 4.707-3.735-2.39zm10.459 2.316-8.293 21.217 2.467.972 6.125 2.315 2.315.896 8.219-21.292-3.362-1.269-6.872 17.856-4.184-1.57 6.872-17.854-3.287-1.271v.001zm67.463.971 2.615 4.857-3.96 2.09-2.615-4.856zm-17.331 3.511-10.833 2.093 4.407 22.338 10.833-2.093-.671-3.587-7.397 1.42-1.271-6.276 7.322-1.418-.673-3.512-7.321 1.419-1.046-5.378 7.321-1.42-.672-3.587zm-36.758.224-3.959 22.562 3.51.598 1.719-9.862 2.017 10.459 3.661.673-2.689-14.418 5.901-8.219-3.659-.673-4.109 5.753 1.12-6.276zm23.459 2.091-10.982.151.374 22.787 10.981-.151-.074-3.659-7.471.223-.074-6.425 7.471-.149-.076-3.586-7.471.149-.074-5.528 7.471-.15-.074-3.662zm34.889 2.167 3.064 5.603-3.96 2.093-3.063-5.603z" fill="#fff"/></svg>