<svg clip-rule="evenodd" fill-rule="evenodd" viewBox="0 0 560 400" xmlns="http://www.w3.org/2000/svg"><path d="m324.384 116.277c-1.707-2.598-3.701-4.997-5.941-7.152-.946-.962-1.948-1.867-3-2.711l21.572-21.515h-62.698l-24.226 24.226-.057.057c-2.184 2.207-4.172 4.601-5.941 7.153-1.739 2.602-3.226 5.364-4.442 8.248-5.073 12.017-5.073 25.59 0 37.607 1.204 2.872 2.692 5.615 4.442 8.191 1.707 2.598 3.7 4.998 5.941 7.153.93.996 1.933 1.921 3 2.768l-21.515 21.515h62.698l24.283-24.341c4.408-4.371 7.915-9.564 10.324-15.285 5.074-12.017 5.074-25.59 0-37.607-1.168-2.924-2.659-5.71-4.441-8.306z"/><path d="m315.674 111.951c-.922-.98-1.961-1.903-2.941-2.768l-26.302 26.418c1.346.384 2.575 1.098 3.577 2.077 3.095 3.172 3.095 8.305 0 11.478l-48.797 48.797h5.768l45.855-45.913c4.702-4.703 4.754-12.423.116-17.189l2.827-2.827c3.014 3.024 4.708 7.123 4.708 11.392 0 4.287-1.708 8.401-4.744 11.428l-.022.022-43.029 43.087h5.711l40.202-40.202c7.809-7.857 7.836-20.722.058-28.61l2.826-2.826c9.398 9.413 9.385 24.892-.029 34.291l-.028.028-37.319 37.319h5.711l34.493-34.493c10.987-10.968 11.013-29.03.057-40.03l2.884-2.884c12.516 12.6 12.464 33.261-.116 45.798l-31.608 31.609h5.768l28.724-28.783c14.129-14.081 14.167-37.295.084-51.423l-.026-.027 2.884-2.884c7.551 7.579 11.796 17.853 11.796 28.552 0 10.755-4.29 21.078-11.911 28.666l-25.841 25.899h5.711l23.014-23.015c17.203-17.318 17.176-45.699-.058-62.986z" fill="#fff"/><path d="m252.976 174.822c.924.962 1.907 1.867 2.941 2.711l26.302-26.302c-1.357-.358-2.592-1.076-3.576-2.077-3.149-3.144-3.152-8.323-.007-11.471l.007-.007 48.797-48.856h-5.711l-45.971 45.972c-4.714 4.706-4.74 12.45-.057 17.189l-2.884 2.826c-6.234-6.245-6.226-16.513.019-22.746l.096-.095 43.088-43.145h-5.711l-40.261 40.261c-7.837 7.844-7.863 20.734-.057 28.609l-2.884 2.827c-9.353-9.45-9.327-24.901.057-34.32l37.434-37.377h-5.71l-34.55 34.55c-10.988 10.968-11.014 29.031-.057 40.031l-2.884 2.884c-12.505-12.597-12.478-33.233.057-45.798l31.666-31.667h-5.71l-28.783 28.84c-14.126 14.088-14.178 37.298-.115 51.45l-2.827 2.884c-15.679-15.704-15.657-41.53.048-57.208l.009-.01 25.956-25.956h-5.711l-23.13 23.13c-17.213 17.277-17.161 45.658.116 62.87v.001z" fill="#cf0a2c"/><path d="m345.61 315.099h-3.403v-18.226h7.556l2.25 2.25v6.344l-1.789 1.788 1.962 7.845h-3.403l-1.846-7.44h-1.326v7.44zm-136.528 0h-3.403v-15.112h-3.057v-3.114h9.574v3.114h-3.114zm55.2 0h-7.326v-18.226h3.46v15.227h3.865v3zm33.743 0h-7.326v-18.226h3.346v15.227h3.98v3zm-45.799 0h-7.44v-2.595h2.019v-13.035h-2.019v-2.595h7.44v2.595h-1.961v13.035h1.961zm85.021 0h-8.076v-18.226h8.018v2.999h-4.556v4.442h4.153v3h-4.153v4.787h4.615v3zm-12.805 0h-8.363v-2.48l4.672-12.632h-4.556v-3.114h8.248v2.422l-4.615 12.69h4.615v3.114zm-100.305-18.226 2.25 2.25v6.344l-1.904 1.788 2.018 7.787h-3.403l-1.904-7.441h-1.269v7.499h-3.403v-18.226h7.614zm88.077 18.226h-3.346l-.519-4.21h-2.884l-.519 4.21h-3.23l2.768-18.226h4.961l2.768 18.226zm51.566 0h-5.076l-2.191-2.192v-3.287h3.345v1.904l.808.807h1.211l.692-.807v-3.461l-.576-.576h-3.576l-1.846-1.962v-6.402l2.192-2.25h5.018l2.192 2.25v3.23h-3.404v-1.904l-.692-.75h-1.153l-.807.75v3.403l.635.519h3.576l1.846 1.904v6.633l-2.192 2.192zm-122.858 0h-3.346l-.462-4.21h-2.941l-.519 4.21h-3.23l2.826-18.226h4.903l2.768 18.226zm42.51-.057h-7.441v-18.169h7.441l2.191 2.25v4.845l-1.788 1.788 1.788 1.788v5.306zm-1.961-2.654.749-.692v-3.75l-.865-.807h-2.019v5.192h2.135zm24.34-4.326h2.192l-1.153-9.055zm-71.35 0h2.192l-1.096-9.055zm113.398-2.999.692-.807v-3.98l-.692-.807h-2.25v5.595h2.25zm-125.626 0 .692-.807v-3.98l-.692-.807h-2.25v5.595h2.25zm59.122-.577.865-.865v-3.231l-.749-.692h-2.077v4.845h1.961zm-116.398-91.538c11.133 0 16.843 3.519 16.843 14.074h.116v13.151c-.289 10.036-5.941 13.381-16.843 13.381h-.577v31.723h-10.786v-63.621l-8.709-8.709h19.957zm119.224 0h10.844v63.621h13.727v8.652h-24.572v-72.273zm-83.751 72.273c6.691 0 14.074-2.711 14.074-12.112v-47.99c0-9.46-7.441-12.171-14.074-12.171-6.576 0-14.016 2.711-14.016 12.171v47.99c0 9.401 7.44 12.112 14.016 12.112zm32.878-72.273c8.652 0 13.727 3 13.727 12.344l.058 14.016c0 5.365.576 7.729-4.153 9.748 0 0 4.095.98 4.153 7.499.23 20.863 0 28.654 0 28.666h-10.44v-25.956c0-4.325-1.616-6.056-6.634-5.825h-.057v31.782h-10.902v-72.273h14.247zm139.181 40.549v-40.549h9.748v72.273h-9.806l-12.171-40.088v40.088h-9.748v-72.273h9.748l12.228 40.549zm27.34-40.549c10.671 0 15.17 3.634 15.17 16.381v42.799-.001c0 6.864-4.442 13.094-12.921 13.094h-15.285v-72.273h13.035zm-78.328 0h16.208l8.191 72.273h-10.844l-2.307-23.072h-7.094l-2.596 23.072h-9.747l8.191-72.273zm-41.876 0v8.709h-9.287v63.563h-10.786v-63.563h-6.576l-8.767-8.709h35.415zm120.551 8.709h-2.596v54.911h2.596c2.768 0 4.095-.692 4.095-5.364v-44.183c0-4.615-1.385-5.365-4.095-5.365zm-202.975 4.384c0-3.634 1.153-4.442 3.346-4.442 2.134 0 3.23.807 3.23 4.442v46.086c0 3.692-1.153 4.441-3.23 4.441-2.192 0-3.346-.75-3.346-4.441zm134.624 27.456-2.077-27.803h-.635l-2.422 27.803zm-164.907-31.84h-2.422.116v23.245h1.846c3.806 0 4.556-1.326 4.556-3.98v-15.688c0-2.769-1.615-3.577-4.096-3.577zm65.524-.057h-2.595v23.187h2.077c3.807 0 4.615-2.018 4.615-4.672v-14.939c0-2.768-1.673-3.576-4.096-3.576z"/></svg>