<svg clip-rule="evenodd" fill-rule="evenodd" viewBox="0 0 560 400" xmlns="http://www.w3.org/2000/svg"><path d="m314.304 190.537.282-23.725c-.025-11.137-11.601-13.002-20.144-12.861 5.734-1.898 12.628-5.137 17.625-10.532 5.984-5.343 9.079-13.227 8.328-21.214-1.093-16.093-21.214-24.106-54.566-20.874-.547.049-1.094.107-1.633.165-1.41-11.582-3.992-22.99-7.706-34.049l-1.649 1.64c-4.433 13.756-7.084 24.719-8.626 34.895-11.447 1.92-22.755 4.592-33.851 7.997l-1.64 1.64s16.101-1.459 34.447-1.201c-2.038 20.857.042 40.671-.024 78.101-29.641-.837-55.645 4.094-62.009 12.008-2.088 1.723-3.198 3.612-3.132 5.643.324 9.073 27.272 17.402 65.15 20.583l1.615 51.443 1.649-1.648 2.66-34.887c.002-.494.063-.987.182-1.467.796.108 1.549 1.127 1.549 2.901l1.168 45.94 1.649-1.64 2.826-37.389c-.02-.699.062-1.396.24-2.072.804.141 1.541 1.318 1.483 3.423l1.31 47.896 1.64-1.64 2.263-69.707c4.351.14 8.79.213 13.317.215 4.79 0 9.505-.083 14.12-.232l2.288 72.674 1.64-1.64 1.956-38.036c-.004-.645.074-1.288.232-1.914.746.174 1.434 1.285 1.434 3.248l1.964 53.341 1.641-1.641 1.988-46.081c.013-.568.102-1.131.265-1.674.945-.008 1.906 1.119 1.947 3.324l1.641 61.08 1.64-1.649 2.395-102.282c32.368-2.826 56.946-9.355 63.036-16.855 2.022-1.698 3.108-3.455 3.108-5.246-.481-9.977-30.421-17.666-65.697-16.001m-69.499 27.404c-25.946-2.503-43.472-7.765-43.472-14.419.004-.496.147-.982.415-1.401 6.082-4.276 24.719-6.977 43.388-9.778-.025 7.317-.132 15.289-.373 24.064l.042 1.533zm52.86-89.321c.986 7.342-1.119 12.885-4.906 17.07-6.771 6.14-17.385 8.933-26.02 10.2.149-13.855-.049-28.233-1.251-42.344 16.656 1.782 30.951 5.983 32.177 15.073m-4.856 90.73c-4.069.116-8.229.177-12.48.182-5.005 0-9.886-.083-14.617-.249l.19-5.917c-.448-14.982.489-33.768.788-53.83 12.147 1.409 26.807 4.873 26.55 13.416l-.431 46.397zm64.519-11.56c-6.041 4.765-22.125 8.453-43.348 10.342l.307-25.514c24.297 3.165 44.01 6.72 44.01 12.546-.023.958-.364 1.883-.969 2.626" fill="#9ea2a2"/><path d="m379.975 206.522c-.456-9.961-30.396-17.65-65.672-15.993l.282-23.725c-.041-14.684-20.144-13.251-26.923-12.356 7.914-1.434 34.365-8.038 32.732-32.26-1.093-16.092-21.214-24.105-54.567-20.874-.546.05-1.093.108-1.632.165-1.41-11.581-3.992-22.99-7.706-34.049-4.64 14.386-7.334 25.722-8.842 36.296-11.937 1.943-23.728 4.695-35.293 8.237-11.564 3.542 16.101-1.459 34.448-1.201-2.072 21.172.099 41.259-.025 79.792-35.061-1.235-65.497 5.593-65.133 15.951.315 9.074 27.271 17.411 65.149 20.592l1.608 51.435 2.659-34.887c.083-4.325 3.381-3.928 3.381-.215l1.177 45.941 2.826-37.389c-.041-5.046 3.489-4.807 3.365-.29l1.301 47.896 2.312-71.389c4.856.174 9.837.265 14.908.265 4.79 0 9.505-.083 14.12-.232l2.288 72.666 1.955-38.035c.025-4.848 3.307-4.599 3.299-.307l1.964 53.34 1.997-46.081c.149-4.524 3.771-4.326 3.853 0l1.641 61.08 2.428-103.715v-.066c38.301-3.157 66.102-11.502 66.102-20.592m-80.671-79.543c2.71 20.128-17.816 26.75-32.558 28.912.276-14.737-.193-29.478-1.408-44.168 17.41 1.665 32.699 5.842 33.966 15.256m-97.972 76.543c0-6.148 22.705-9.397 45.444-12.811-.025 7.309-.133 15.289-.373 24.055l.107 3.34c-26.882-2.436-45.179-7.789-45.179-14.584m64.379 15.762.19-5.917c-.464-15.43.547-34.903.821-55.653 12.421 1.276 28.431 4.656 28.166 13.589l-.455 47.988c-4.574.149-9.29.232-14.104.232-5.005.009-9.886-.074-14.617-.24m48.269-1.152.324-27.371c25.034 3.232 45.626 6.812 45.626 12.77.008 6.812-18.745 12.181-45.95 14.601" fill="#ce1141"/></svg>