<?xml version="1.0" encoding="UTF-8" standalone="no"?>
<svg
   xmlns:dc="http://purl.org/dc/elements/1.1/"
   xmlns:cc="http://creativecommons.org/ns#"
   xmlns:rdf="http://www.w3.org/1999/02/22-rdf-syntax-ns#"
   xmlns:svg="http://www.w3.org/2000/svg"
   xmlns="http://www.w3.org/2000/svg"
   xmlns:sodipodi="http://sodipodi.sourceforge.net/DTD/sodipodi-0.dtd"
   xmlns:inkscape="http://www.inkscape.org/namespaces/inkscape"
   version="1.1"
   id="svg833"
   width="470"
   height="500"
   viewBox="0 0 470 500"
   sodipodi:docname="nbaCourt3.svg"
   inkscape:version="1.0.1 (3bc2e813f5, 2020-09-07)">
  <metadata
     id="metadata839">
    <rdf:RDF>
      <cc:Work
         rdf:about="">
        <dc:format>image/svg+xml</dc:format>
        <dc:type
           rdf:resource="http://purl.org/dc/dcmitype/StillImage" />
        <dc:title></dc:title>
      </cc:Work>
    </rdf:RDF>
  </metadata>
  <defs
     id="defs837" />
  <sodipodi:namedview
     pagecolor="#ffffff"
     bordercolor="#666666"
     borderopacity="1"
     objecttolerance="10"
     gridtolerance="10"
     guidetolerance="10"
     inkscape:pageopacity="0"
     inkscape:pageshadow="2"
     inkscape:window-width="2400"
     inkscape:window-height="1271"
     id="namedview835"
     showgrid="false"
     inkscape:zoom="1.0962595"
     inkscape:cx="400"
     inkscape:cy="378.56"
     inkscape:window-x="2391"
     inkscape:window-y="-9"
     inkscape:window-maximized="1"
     inkscape:current-layer="layer1" />
  <g
     inkscape:groupmode="layer"
     inkscape:label="Image"
     id="g841" />
  <g
     inkscape:groupmode="layer"
     id="layer1"
     inkscape:label="Image 1"
     style="display:inline">
    <path
       style="fill:#000000;stroke-width:0.398645"
       d="M 0,250 V 0 H 235 470 V 250 500 H 235 0 Z m 176.53754,243.3432 c 1.98926,-25.28505 15.95564,-46.4006 36.76374,-55.58246 10.10046,-4.45702 22.51778,-5.53057 33.31906,-2.88065 18.7787,4.60706 34.44497,19.58081 41.37321,39.54434 2.27251,6.54818 2.86846,9.57642 4.01432,20.39806 l 0.19021,1.79628 H 379.59505 466.992 V 397.92899 299.23922 H 454.02 441.048 v -1.69061 -1.69062 h 12.972 12.972 v -72.27388 -72.27388 h -12.32896 -12.32893 l -1.45102,3.90955 c -0.79803,2.15025 -3.01601,7.52325 -4.92884,11.93998 -30.56831,70.58304 -89.42253,121.38595 -158.36322,136.69903 -28.25035,6.27497 -58.44155,6.26883 -86.77103,-0.0177 -28.62503,-6.35207 -57.03835,-19.54836 -81.592,-37.89465 C 81.255274,245.0455 57.434478,216.61814 40.261772,183.64328 36.626099,176.66209 30.178918,162.27752 27.808301,155.85782 l -1.676301,-4.53948 -11.562,-0.004 -11.562,-0.004 v 72.27388 72.27388 h 12.22 12.22 v 1.69062 1.69061 H 15.228 3.008 v 98.68977 98.68978 h 86.635923 86.635917 z m 37.55423,2.60701 c 0.12553,-0.36771 0.22823,-1.03939 0.22823,-1.4926 0,-1.71256 1.63636,-6.1869 3.27937,-8.96687 5.6496,-9.55912 17.12914,-12.54979 26.56639,-6.92113 4.74669,2.83111 9.22263,9.82908 9.92233,15.51323 l 0.28615,2.3246 17.43708,0.10993 17.43709,0.10993 -0.25842,-3.27984 c -1.9267,-24.4533 -16.21085,-45.14066 -36.81115,-53.31263 -6.27159,-2.48788 -10.17964,-3.18124 -17.93084,-3.18124 -5.76798,0 -7.61027,0.15943 -10.78684,0.93348 -15.72802,3.8325 -28.49634,14.09619 -36.62003,29.43669 -4.25686,8.0385 -7.44941,19.8153 -7.48168,27.59873 l -0.007,1.79628 h 17.25577 c 15.38815,0 17.28047,-0.0724 17.484,-0.66856 z m 37.45223,0.3347 c 0,-0.98014 -1.23166,-5.4227 -1.92993,-6.96128 -0.44304,-0.97617 -1.80601,-2.94607 -3.02883,-4.37752 -4.81081,-5.63157 -12.04431,-7.52168 -18.44365,-4.81931 -5.49107,2.31885 -9.90783,8.3104 -11.01457,14.9418 l -0.25871,1.55017 h 17.33784 c 9.53582,0 17.33785,-0.15026 17.33785,-0.33386 z m -7.5655,-191.13907 c 29.23711,-1.5949 57.27518,-9.32295 83.64689,-23.05532 48.91353,-25.47043 88.45971,-71.01574 109.99093,-126.67652 l 1.92768,-4.98331 V 76.905966 3.3812342 h -50.196 -50.196 v 4.4378698 4.43787 h -1.504 -1.504 V 7.819104 3.3812342 H 323.548 310.952 V 38.672866 73.964497 h 3.948 3.948 v 1.690617 1.690617 h -3.948 -3.948 v 3.592561 3.592562 h 3.948 3.948 v 1.690617 1.690617 h -3.948 -3.948 v 14.158922 14.15891 h 3.948 3.948 v 1.69062 1.69062 h -3.948 -3.948 v 14.15892 14.15891 h 3.948 3.948 v 1.69062 1.69062 h -3.948 -3.948 v 26.41589 26.41589 h -9.37696 -9.37696 l -0.19818,1.79628 c -0.109,0.98796 -0.30423,3.10318 -0.43385,4.70051 -1.01033,12.45028 -6.99103,26.67399 -15.34828,36.50233 -5.50274,6.47136 -10.18209,10.26834 -17.52977,14.2242 -16.89789,9.09754 -37.47271,8.00321 -53.90401,-2.86703 -15.63538,-10.34368 -26.09141,-28.54095 -28.02448,-48.7727 -0.22853,-2.39183 -0.41551,-4.62661 -0.41551,-4.96618 0,-0.52498 -1.40727,-0.61741 -9.4,-0.61741 h -9.4 v -26.41589 -26.41589 h -3.948 -3.948 v -1.69062 -1.69062 h 3.948 3.948 v -14.15891 -14.15892 h -3.948 -3.948 v -1.69062 -1.69062 h 3.948 3.948 V 102.07101 87.912088 h -3.948 -3.948 v -1.690617 -1.690617 h 3.948 3.948 v -3.592562 -3.592561 h -3.948 -3.948 v -1.690617 -1.690617 h 3.948 3.948 V 38.672866 3.3812342 h -12.596 -12.596 v 4.4378698 4.43787 h -1.504 -1.504 V 7.819104 3.3812342 H 79.14488 28.945769 l 0.09712,74.0701608 0.09712,74.070165 3.303273,8.03043 c 8.60861,20.92798 18.842014,39.13114 32.076894,57.05832 5.208105,7.05459 20.347915,24.07751 26.659833,29.97583 14.177041,13.24805 28.130631,23.51712 43.992001,32.37569 10.54141,5.88737 18.06862,9.38028 29.14,13.52204 26.42876,9.8869 53.03086,14.11497 79.6665,12.66197 z m 1.1735,-42.03421 c 10.91615,-2.71482 19.88562,-8.1938 27.66838,-16.90113 5.83671,-6.5301 9.43759,-12.5405 12.2896,-20.51312 2.15753,-6.03128 4.03402,-15.38419 4.03402,-20.10666 v -1.44871 h -54.95147 -54.95147 l 0.24765,3.62163 c 0.97976,14.32794 6.54792,27.6278 16.00783,38.23563 8.64703,9.69631 17.91775,15.10246 30.10346,17.55464 3.87207,0.77918 15.71804,0.51122 19.552,-0.44228 z M 176.344,102.07101 V 3.3812342 h -7.896 -7.896 v 98.6897758 98.68977 h 7.896 7.896 z m 112.61124,95.4142 c -1.88828,-24.45547 -16.14793,-45.1252 -36.7764,-53.30837 -6.27159,-2.48789 -10.17964,-3.18125 -17.93084,-3.18125 -5.76798,0 -7.61027,0.15943 -10.78684,0.93348 -15.72802,3.83249 -28.49634,14.09619 -36.62003,29.43668 -4.25686,8.03852 -7.44941,19.81533 -7.48168,27.59875 l -0.007,1.79628 h 54.92808 54.92808 z M 307.944,102.07101 V 3.3812342 h -7.896 -7.896 v 98.6897758 98.68977 h 7.896 7.896 z M 182.65098,173.0544 c 7.5427,-16.85682 22.09299,-29.67541 38.38264,-33.81457 25.21218,-6.40635 50.61323,5.99089 63.39475,30.94045 0.97015,1.89374 2.42285,5.22214 3.22822,7.39644 l 1.46429,3.95329 0.0116,-89.074389 0.0115,-89.0743868 h -54.896 -54.896 l 0.0184,89.0743868 0.0184,89.074389 0.86959,-2.53593 c 0.47828,-1.39476 1.55496,-4.06762 2.39263,-5.93968 z M 231.32982,66.215184 c -6.02223,-2.455083 -7.45333,-11.429952 -2.58822,-16.231592 0.71825,-0.708875 1.91262,-1.513947 2.65415,-1.78904 1.0535,-0.390829 1.34825,-0.724007 1.34825,-1.524032 v -1.023859 h -13.348 -13.348 v -1.690617 -1.690617 h 28.2 28.2 v 1.690617 1.690617 H 249.1 235.752 v 1.023859 c 0,0.786902 0.29191,1.132147 1.2613,1.491771 1.93869,0.719218 4.23899,3.173368 4.95796,5.289586 0.98096,2.887299 0.63888,6.88568 -0.78691,9.197924 -2.08741,3.385178 -6.43666,4.958749 -9.85453,3.565383 z m 5.9557,-3.77813 c 1.64408,-1.245419 2.80262,-4.258301 2.44997,-6.371352 -0.54162,-3.245326 -4.01309,-5.736666 -6.79182,-4.874222 -4.84975,1.505232 -5.82349,8.477814 -1.58924,11.379949 1.68228,1.153026 4.31019,1.093491 5.93109,-0.134375 z M 25.944,75.655114 V 3.3812342 H 14.476 3.008 V 75.655114 147.92899 h 11.468 11.468 z m 441.048,0 V 3.3812342 h -12.22 -12.22 V 75.655114 147.92899 h 12.22 12.22 z"
       id="path1406" />
  </g>
</svg>
