<?xml version="1.0" encoding="UTF-8" standalone="no"?>
<svg
   xmlns:dc="http://purl.org/dc/elements/1.1/"
   xmlns:cc="http://creativecommons.org/ns#"
   xmlns:rdf="http://www.w3.org/1999/02/22-rdf-syntax-ns#"
   xmlns:svg="http://www.w3.org/2000/svg"
   xmlns="http://www.w3.org/2000/svg"
   xmlns:sodipodi="http://sodipodi.sourceforge.net/DTD/sodipodi-0.dtd"
   xmlns:inkscape="http://www.inkscape.org/namespaces/inkscape"
   version="1.1"
   id="svg833"
   width="800"
   height="757.12"
   viewBox="0 0 800 757.12"
   sodipodi:docname="nbaCourt.svg"
   inkscape:version="1.0.1 (3bc2e813f5, 2020-09-07)">
  <metadata
     id="metadata839">
    <rdf:RDF>
      <cc:Work
         rdf:about="">
        <dc:format>image/svg+xml</dc:format>
        <dc:type
           rdf:resource="http://purl.org/dc/dcmitype/StillImage" />
        <dc:title></dc:title>
      </cc:Work>
    </rdf:RDF>
  </metadata>
  <defs
     id="defs837" />
  <sodipodi:namedview
     pagecolor="#ffffff"
     bordercolor="#666666"
     borderopacity="1"
     objecttolerance="10"
     gridtolerance="10"
     guidetolerance="10"
     inkscape:pageopacity="0"
     inkscape:pageshadow="2"
     inkscape:window-width="2400"
     inkscape:window-height="1271"
     id="namedview835"
     showgrid="true"
     inkscape:zoom="1"
     inkscape:cx="707.88696"
     inkscape:cy="289.10232"
     inkscape:window-x="2391"
     inkscape:window-y="-9"
     inkscape:window-maximized="1"
     inkscape:current-layer="g841">
    <inkscape:grid
       type="xygrid"
       id="grid862" />
  </sodipodi:namedview>
  <g
     inkscape:groupmode="layer"
     inkscape:label="Image"
     id="g841">
    <path
       style="fill:#000000;stroke-width:0.64"
       d="M 2.8400041,378.44 V -0.12 H 402.84 h 400 V 378.44 757 H 402.84 2.8400041 Z M 303.31932,747.56 c 2.48737,-25.51123 12.10701,-46.17446 29.42236,-63.2 29.84752,-29.3479 75.52238,-36.51507 112.74697,-17.69184 15.4027,7.78861 27.94771,18.78694 37.58426,32.9504 8.43288,12.39437 14.93649,30.18682 16.13547,44.14298 0.18704,2.17715 0.48172,4.89446 0.65485,6.03846 l 0.31477,2.08 H 648.94899 797.72 V 602.44 453 h -22.08 -22.08 v -2.56 -2.56 h 22.08 22.08 V 338.44 229 h -21.02554 -21.02553 l -3.39143,7.84 C 728.98995,290.6741 692.22547,339.90791 647.08531,377.70999 561.9745,448.98503 449.72746,479.95011 340.76,462.21455 278.00982,452.00132 217.95338,426.0205 167.96269,387.46125 141.84491,367.31587 115.13835,340.27039 95.540504,314.12 77.467804,290.00468 58.939044,257.60676 48.963984,232.68 L 47.491334,229 H 27.725664 7.9600041 v 109.44 109.44 h 20.7999999 20.8 v 2.56 2.56 h -20.8 H 7.9600041 V 602.44 751.88 H 155.42906 302.89812 Z m 64.00776,2.56 c 1.59472,-7.9856 4.66532,-14.21408 9.4938,-19.25747 17.73231,-18.5216 48.54662,-11.71283 57.13815,12.62534 0.82169,2.32768 1.50005,5.16813 1.50747,6.31213 l 0.0135,2.08 h 29.85202 29.85201 l -0.43648,-5.28 c -1.83972,-22.25434 -11.06931,-41.95706 -27.22761,-58.12378 -13.55849,-13.56556 -28.08701,-21.46425 -47.28297,-25.70617 -8.41906,-1.86048 -27.61715,-2.00301 -36.25375,-0.26919 -12.35823,2.48096 -24.94878,7.733 -35.5255,14.81914 -6.27828,4.20627 -17.04829,14.6087 -22.11629,21.36141 -5.04725,6.72512 -10.35849,16.90073 -13.40311,25.67859 -2.44562,7.05088 -4.81832,19.05818 -4.81832,24.38362 V 751.88 h 29.42781 29.42781 z m 63.66532,0.96 c -0.004,-0.44 -0.39282,-2.24 -0.86366,-4 -3.49337,-13.05818 -15.1739,-22.09651 -28.5249,-22.07238 -13.09834,0.0237 -24.45585,8.27148 -28.27132,20.53062 -2.19956,7.0672 -5.42839,6.34176 28.22748,6.34176 23.12938,0 29.43837,-0.17146 29.4324,-0.8 z M 418.52,461.94346 c 44.75118,-2.17965 86.5345,-11.49756 128,-28.5447 12.43662,-5.1129 37.09498,-17.56273 48.96,-24.71957 66.52672,-40.12812 117.59955,-97.30432 149.9193,-167.83525 L 750.68,229.32 750.84531,117.16 751.01062,5 H 665.56531 580.12 v 6.72 6.72 H 577.56 575 V 11.72 5 h -21.44 -21.44 v 53.44 53.44 h 6.72 6.72 v 2.56 2.56 h -6.72 -6.72 v 5.44 5.44 h 6.72 6.72 v 2.56 2.56 h -6.72 -6.72 v 21.44 21.44 h 6.72 6.72 v 2.56 2.56 h -6.72 -6.72 v 21.44 21.44 h 6.72 6.72 v 2.56 2.56 h -6.72 -6.72 v 40 40 h -15.971 -15.971 l -0.31634,2.08 c -0.17398,1.144 -0.48937,4.096 -0.70085,6.56 -1.16724,13.59951 -6.93711,29.78089 -15.06172,42.24 -14.76633,22.64422 -36.64875,37.42925 -64.05614,43.28006 -9.62675,2.05508 -26.69315,2.07453 -36.86872,0.0421 -23.56578,-4.70709 -44.31727,-17.34105 -58.8811,-35.84809 C 312.06038,351.80919 305.34271,334.50865 303.31212,313.32 l -0.414,-4.32 H 286.94906 271 v -40 -40 h -6.72 -6.72 v -2.56 -2.56 h 6.72 6.72 V 202.44 181 h -6.72 -6.72 v -2.56 -2.56 h 6.72 6.72 V 154.44 133 h -6.72 -6.72 v -2.56 -2.56 h 6.72 6.72 V 122.44 117 h -6.72 -6.72 v -2.56 -2.56 h 6.72 6.72 V 58.44 5 h -21.44 -21.44 v 6.72 6.72 H 225.56 223 V 11.72 5 H 137.56 52.120004 v 111.6887 111.6887 l 3.60186,8.1513 c 29.29684,66.30113 75.523986,121.57881 135.212296,161.6847 66.62586,44.76737 148.15844,67.59866 227.58584,63.73006 z m 2.93715,-63.87229 c 18.31173,-4.29868 33.53261,-12.66557 46.29499,-25.44828 15.49258,-15.51724 25.25847,-36.52244 26.97642,-58.02289 l 0.44747,-5.6 h -93.62385 -93.62385 l 0.40815,5.75009 c 1.62238,22.85621 13.54723,46.64047 31.02851,61.88672 13.56257,11.82855 28.83025,19.10659 46.83501,22.32605 7.32061,1.30901 28.12375,0.78287 35.25715,-0.89169 z M 303,154.44 V 5 H 289.56 276.12 V 154.44 303.88 H 289.56 303 Z M 494.74755,298.6 c -1.83972,-22.25432 -11.06931,-41.95708 -27.22761,-58.12379 -13.55849,-13.56554 -28.08701,-21.46422 -47.28297,-25.70618 -8.41906,-1.86046 -27.61715,-2.003 -36.25375,-0.26918 -12.35823,2.48096 -24.94878,7.73299 -35.5255,14.81915 -6.27828,4.2063 -17.04829,14.60872 -22.11629,21.36143 -5.04725,6.72507 -10.35849,16.90069 -13.40311,25.67857 -2.44562,7.05087 -4.81832,19.0582 -4.81832,24.3836 v 3.1364 h 93.53202 93.53201 z M 527,154.44 V 5 H 513.56 500.12 V 154.44 303.88 H 513.56 527 Z m -32,-14.4 V 5 h -93.44 -93.44 l 0.0125,134.88 0.0126,134.88 2.73973,-6.4 c 5.24974,-12.26337 12.33679,-22.63934 21.8568,-32 29.84752,-29.34792 75.52239,-36.51505 112.74698,-17.69184 15.39546,7.78495 27.88518,18.73176 37.59822,32.9535 3.36545,4.92766 9.54431,17.01182 10.74131,21.00706 0.40393,1.34821 0.83283,2.45128 0.95312,2.45128 0.12028,0 0.21869,-60.768 0.21869,-135.04 z M 397.00644,100.15524 C 384.69144,95.551 383.76877,79.07925 395.52438,73.69735 398.33991,72.40836 399,71.8112 399,70.55308 V 69 h -22.72 -22.72 v -2.56 -2.56 h 48 48 V 66.44 69 h -22.72 -22.72 v 1.49868 c 0,1.1799 0.78278,1.89849 3.68,3.37826 12.85676,6.56665 9.16705,25.65961 -5.19201,26.86684 -1.89116,0.159 -4.27085,-0.091 -5.60155,-0.58854 z m 9.73892,-5.728 c 7.74293,-5.17262 4.18547,-17.3534 -5.06815,-17.3534 -5.62527,0 -9.71721,3.99823 -9.71721,9.49466 0,2.91827 1.29149,5.46885 3.86612,7.63526 2.67975,2.25487 7.7239,2.3581 10.91924,0.22348 z M 47.000004,114.44 V 5 h -19.52 -19.5199999 v 109.44 109.44 h 19.5199999 19.52 z m 750.719996,0 V 5 h -20.8 -20.8 v 109.44 109.44 h 20.8 20.8 z"
       id="path845" />
  </g>
</svg>
